<svg version="1.1" xmlns="http://www.w3.org/2000/svg" xmlns:xlink="http://www.w3.org/1999/xlink" x="0px" y="0px"
	 viewBox="0 0 676 369" enable-background="new 0 0 676 369" xml:space="preserve">
<path fill="#818286" opacity="1.000000" stroke="none"
	d="
M243.136993,258.179260
	C236.684402,253.250229 230.273422,248.265518 223.768250,243.406906
	C216.361481,237.874893 208.842148,232.493774 201.422012,226.979431
	C183.515091,213.671768 164.470276,202.147003 144.080002,193.227905
	C121.950348,183.547974 99.570473,174.280090 76.777985,166.327881
	C59.659950,160.355484 41.748299,156.624023 24.123394,152.157593
	C18.455458,150.721237 12.575365,150.122070 6.529107,148.603836
	C6.218493,100.654854 6.171104,53.241940 6.123716,5.829028
	C9.784475,5.876715 13.452799,5.789876 17.104692,5.995236
	C33.444439,6.914083 49.843956,7.320673 66.095581,9.079421
	C78.767136,10.450734 91.300484,13.312266 103.808014,15.928643
	C117.446228,18.781542 131.120087,21.629339 144.523911,25.387125
	C156.038925,28.615377 167.303940,32.840164 178.481995,37.138020
	C191.515533,42.149292 204.606430,47.153702 217.171829,53.201229
	C230.355408,59.546272 243.175552,66.740555 255.731918,74.268600
	C268.672668,82.027077 281.325500,90.319290 293.681702,98.980843
	C302.126038,104.900223 309.882782,111.808205 317.878174,118.358101
	C324.603241,123.867325 331.229126,129.497635 338.290741,135.378052
	C338.730621,135.946884 338.753815,136.214142 338.417328,136.592941
	C336.271881,138.152176 334.336212,139.471756 332.669067,141.071213
	C303.853394,168.717056 278.609222,199.317581 257.257629,233.063812
	C252.129395,241.169022 247.821930,249.793549 243.136993,258.179260
z"/>
<path fill="#1AAEEF" opacity="1.000000" stroke="none"
	d="
M338.752075,136.483551
	C338.753815,136.214142 338.730621,135.946884 338.607056,135.496384
	C347.821228,127.261993 356.801636,118.816566 366.480194,111.265999
	C378.153320,102.159393 390.071167,93.270325 402.520630,85.280472
	C416.457642,76.335915 430.792847,67.885712 445.534088,60.354248
	C461.543732,52.174732 477.993164,44.738663 494.664062,38.000843
	C514.758118,29.879498 535.450623,23.380110 556.735596,18.966024
	C569.127686,16.396147 581.444275,13.413015 593.901733,11.224186
	C602.951660,9.634073 612.165710,8.926677 621.327332,8.040349
	C628.199585,7.375508 635.104858,7.052135 642.717651,6.615438
	C649.237671,6.789686 655.034851,6.984896 660.833496,7.046151
	C668.655151,7.128777 668.944214,7.368640 668.944397,15.170262
	C668.945374,55.903767 668.967041,96.637306 668.905090,137.370712
	C668.899292,141.173767 668.358948,144.975983 668.066772,148.778595
	C658.414307,150.857224 648.633301,152.473053 639.136475,155.111816
	C620.017639,160.424179 600.855591,165.713684 582.090149,172.121857
	C567.783569,177.007385 554.022888,183.513779 540.086670,189.456985
	C513.981445,200.589752 489.903137,215.198578 467.267639,232.252609
	C456.382141,240.453934 445.471954,248.622574 434.013916,256.709869
	C432.543640,255.227264 431.554565,253.885330 430.732513,252.447876
	C405.956726,209.124329 375.114136,170.615662 338.752075,136.483551
z"/>
<path fill="#095B87" opacity="1.000000" stroke="none"
	d="
M338.417328,136.592941
	C375.114136,170.615662 405.956726,209.124329 430.732513,252.447876
	C431.554565,253.885330 432.543640,255.227264 433.691010,256.855774
	C428.383728,262.193604 422.662872,267.111542 417.336731,272.425079
	C408.427246,281.313507 399.731537,290.417908 391.023438,299.505707
	C387.035889,303.667114 382.994568,307.813873 379.391083,312.299438
	C369.212585,324.969421 359.167725,337.749329 349.239410,350.616486
	C345.393921,355.600281 342.002899,360.934692 338.229736,366.361176
	C328.928864,353.703583 320.077423,341.414886 310.952148,329.332947
	C305.735809,322.426453 300.407959,315.547394 294.538635,309.203339
	C284.186157,298.013550 273.517548,287.105438 262.712494,276.349396
	C256.547638,270.212555 249.851227,264.609711 243.265594,258.472839
	C247.821930,249.793549 252.129395,241.169022 257.257629,233.063812
	C278.609222,199.317581 303.853394,168.717056 332.669067,141.071213
	C334.336212,139.471756 336.271881,138.152176 338.417328,136.592941
z"/>
</svg>
